<?xml version="1.0" encoding="utf-8"?>
<svg version="1.1" id="Layer_1"
xmlns="http://www.w3.org/2000/svg"
xmlns:xlink="http://www.w3.org/1999/xlink"
width="120px" height="50px"
xml:space="preserve">
<g id="PathID_93" transform="matrix(0.485288, 0, 0, 0.484478, 93.55, 24.85)" opacity="1">
<path style="fill:#000000;fill-opacity:1" d="M36 -36.1Q51 -21.1 51 0Q51 21.1 36 36Q21.1 51 0 51Q-21.1 51 -36.1 36Q-51 21.1 -51 0Q-51 -21.1 -36.1 -36.1Q-21.1 -51 0 -51Q21.1 -51 36 -36.1" />
</g>
<g id="PathID_94" transform="matrix(0.485288, 0, 0, 0.484478, 93.55, 24.85)" opacity="1">
</g>
<g id="PathID_95" transform="matrix(0.10435, -0.292191, 0.304662, 0.100078, 63.25, 39.5)" opacity="1">
<path style="fill:#1AB187;fill-opacity:1" d="M144.4 46.55Q155.8 74.9 143.75 103Q131.55 131.1 103.2 142.5Q82.4 150.85 60.5 146.15Q74.7 146.8 88 141.45Q110.75 132.2 122.3 110.95Q134.1 89.7 129.85 66.1Q131.35 87.1 120.4 104.95Q109.2 123.4 89.05 131.55Q64.15 141.45 39.5 130.7Q16.95 121.05 6.85 99.8L4.95 95.25Q-3.85 73.8 3 51.9Q4.5 46.95 6.85 42.45Q14.15 27.45 28.3 17.55Q37.55 10.05 48.5 5.55Q77.05 -5.85 104.95 6.2Q133.25 18.2 144.4 46.55" />
</g>
<g id="PathID_96" transform="matrix(0.10435, -0.292191, 0.304662, 0.100078, 63.25, 39.5)" opacity="1">
</g>
<g id="PathID_97" transform="matrix(0.205934, 0.0332641, -0.0280378, 0.226528, 84.15, 24.75)" opacity="1">
<path style="fill:#000000;fill-opacity:1" d="M36 -36.1Q51 -21.1 51 0Q51 21.1 36 36Q21.1 51 0 51Q-21.1 51 -36.1 36Q-51 21.1 -51 0Q-51 -21.1 -36.1 -36.1Q-21.1 -51 0 -51Q21.1 -51 36 -36.1" />
</g>
<g id="PathID_98" transform="matrix(0.205934, 0.0332641, -0.0280378, 0.226528, 84.15, 24.75)" opacity="1">
</g>
<g id="PathID_99" transform="matrix(0.116549, -0.00535588, 0.00558449, 0.111778, 103.55, 25.1)" opacity="1">
<path style="fill:#000000;fill-opacity:1" d="M36 -36.1Q51 -21.1 51 0Q51 21.1 36 36Q21.1 51 0 51Q-21.1 51 -36.1 36Q-51 21.1 -51 0Q-51 -21.1 -36.1 -36.1Q-21.1 -51 0 -51Q21.1 -51 36 -36.1" />
</g>
<g id="PathID_100" transform="matrix(0.116549, -0.00535588, 0.00558449, 0.111778, 103.55, 25.1)" opacity="1">
</g>
<g id="PathID_101" transform="matrix(0.0384755, -0.0226546, 0.0147346, 0.0230177, 93.95, 40.6)" opacity="1">
<path style="fill:#000000;fill-opacity:1" d="M185.85 -9.55L185.85 9.6Q185.85 30.3 171.2 44.95Q156.55 59.6 135.85 59.6L-135.85 59.6Q-156.55 59.6 -171.2 44.95Q-185.85 30.3 -185.85 9.6L-185.85 -9.55Q-185.85 -30.25 -171.2 -44.9Q-156.55 -59.55 -135.85 -59.55L135.85 -59.55Q156.55 -59.55 171.2 -44.9Q185.85 -30.25 185.85 -9.55" />
</g>
<g id="PathID_102" transform="matrix(0.0384755, -0.0226546, 0.0147346, 0.0230177, 93.95, 40.6)" opacity="1">
</g>
<g id="PathID_103" transform="matrix(0.0350997, -0.0206711, 0.0101047, 0.0157819, 93.85, 40.6)" opacity="1">
<path style="fill:#A60000;fill-opacity:1" d="M185.85 -9.55L185.85 9.6Q185.85 30.3 171.2 44.95Q156.55 59.6 135.85 59.6L-135.85 59.6Q-156.55 59.6 -171.2 44.95Q-185.85 30.3 -185.85 9.6L-185.85 -9.55Q-185.85 -30.25 -171.2 -44.9Q-156.55 -59.55 -135.85 -59.55L135.85 -59.55Q156.55 -59.55 171.2 -44.9Q185.85 -30.25 185.85 -9.55" />
</g>
<g id="PathID_104" transform="matrix(0.0350997, -0.0206711, 0.0101047, 0.0157819, 93.85, 40.6)" opacity="1">
</g>
<g id="PathID_105" transform="matrix(0.0439102, 0.0100695, -0.00654922, 0.0262689, 93.95, 40.6)" opacity="1">
<path style="fill:#000000;fill-opacity:1" d="M185.85 -9.55L185.85 9.6Q185.85 30.3 171.2 44.95Q156.55 59.6 135.85 59.6L-135.85 59.6Q-156.55 59.6 -171.2 44.95Q-185.85 30.3 -185.85 9.6L-185.85 -9.55Q-185.85 -30.25 -171.2 -44.9Q-156.55 -59.55 -135.85 -59.55L135.85 -59.55Q156.55 -59.55 171.2 -44.9Q185.85 -30.25 185.85 -9.55" />
</g>
<g id="PathID_106" transform="matrix(0.0439102, 0.0100695, -0.00654922, 0.0262689, 93.95, 40.6)" opacity="1">
</g>
<g id="PathID_107" transform="matrix(0.0400598, 0.00918652, -0.00449067, 0.0180121, 93.85, 40.6)" opacity="1">
<path style="fill:#A60000;fill-opacity:1" d="M185.85 -9.55L185.85 9.6Q185.85 30.3 171.2 44.95Q156.55 59.6 135.85 59.6L-135.85 59.6Q-156.55 59.6 -171.2 44.95Q-185.85 30.3 -185.85 9.6L-185.85 -9.55Q-185.85 -30.25 -171.2 -44.9Q-156.55 -59.55 -135.85 -59.55L135.85 -59.55Q156.55 -59.55 171.2 -44.9Q185.85 -30.25 185.85 -9.55" />
</g>
<g id="PathID_108" transform="matrix(0.0400598, 0.00918652, -0.00449067, 0.0180121, 93.85, 40.6)" opacity="1">
</g>
<g id="PathID_109" transform="matrix(0.186781, 0.0301703, -0.0254301, 0.205459, 84.1, 25.1)" opacity="1">
<path style="fill:#FFFFFF;fill-opacity:1" d="M36 -36.1Q51 -21.1 51 0Q51 21.1 36 36Q21.1 51 0 51Q-21.1 51 -36.1 36Q-51 21.1 -51 0Q-51 -21.1 -36.1 -36.1Q-21.1 -51 0 -51Q21.1 -51 36 -36.1" />
</g>
<g id="PathID_110" transform="matrix(0.186781, 0.0301703, -0.0254301, 0.205459, 84.1, 25.1)" opacity="1">
</g>
<g id="PathID_111" transform="matrix(0.260102, 0, 0, 0.185171, 83.95, 25.5)" opacity="1">
<path style="fill:#000000;fill-opacity:1" d="M3.35 -41.75L7.95 -24.15Q9.4 -18.95 14 -13.65Q18.55 -8.45 23.65 -6.4L27.45 -4.95Q32.5 -2.8 32.5 0Q32.5 2.8 27.45 5L23.65 6.5Q18.55 8.45 14 13.75Q9.4 18.8 7.95 24.15L3.35 41.85Q1.9 47.05 0.05 47.05Q-1.85 47.05 -3.35 41.85L-8.05 24.15Q-9.4 18.95 -14 13.75Q-18.7 8.45 -23.7 6.5L-27.55 5Q-32.5 2.8 -32.5 0Q-32.5 -2.8 -27.55 -4.95L-23.7 -6.4Q-18.7 -8.45 -14 -13.65Q-9.4 -18.95 -8.05 -24.15L-3.35 -41.75Q-1.85 -47 0.05 -47Q1.9 -47 3.35 -41.75" />
</g>
<g id="PathID_112" transform="matrix(0.260102, 0, 0, 0.185171, 83.95, 25.5)" opacity="1">
</g>
<g id="PathID_113" transform="matrix(0.243937, 0, 0, 0.173663, 84.1, 25.4)" opacity="1">
<path style="fill:#FFD045;fill-opacity:1" d="M3.35 -41.75L7.95 -24.15Q9.4 -18.95 14 -13.65Q18.55 -8.45 23.65 -6.4L27.45 -4.95Q32.5 -2.8 32.5 0Q32.5 2.8 27.45 5L23.65 6.5Q18.55 8.45 14 13.75Q9.4 18.8 7.95 24.15L3.35 41.85Q1.9 47.05 0.05 47.05Q-1.85 47.05 -3.35 41.85L-8.05 24.15Q-9.4 18.95 -14 13.75Q-18.7 8.45 -23.7 6.5L-27.55 5Q-32.5 2.8 -32.5 0Q-32.5 -2.8 -27.55 -4.95L-23.7 -6.4Q-18.7 -8.45 -14 -13.65Q-9.4 -18.95 -8.05 -24.15L-3.35 -41.75Q-1.85 -47 0.05 -47Q1.9 -47 3.35 -41.75" />
</g>
<g id="PathID_114" transform="matrix(0.243937, 0, 0, 0.173663, 84.1, 25.4)" opacity="1">
</g>
<g id="PathID_115" transform="matrix(0.100261, -0.00460736, 0.00480402, 0.0961563, 103.55, 25.4)" opacity="1">
<path style="fill:#FFFFFF;fill-opacity:1" d="M36 -36.1Q51 -21.1 51 0Q51 21.1 36 36Q21.1 51 0 51Q-21.1 51 -36.1 36Q-51 21.1 -51 0Q-51 -21.1 -36.1 -36.1Q-21.1 -51 0 -51Q21.1 -51 36 -36.1" />
</g>
<g id="PathID_116" transform="matrix(0.100261, -0.00460736, 0.00480402, 0.0961563, 103.55, 25.4)" opacity="1">
</g>
<g id="PathID_117" transform="matrix(-0.0668824, -5.60769e-009, 0, 0.0641445, 108.5, 20.7)" opacity="1">
<path style="fill:#000000;fill-opacity:1" d="M82.15 71.5Q79.9 70.7 78.9 69.85Q78 70.45 77.15 70.7L76.2 73.75Q78.55 73.85 80.45 70.85Q80.45 72.75 79.45 74.2Q78.55 75.6 76.85 75.6L74.4 75.75Q73.85 76 73 75.75L72.15 75.45L72.75 75.75L76.75 77L78.3 76.2L81.15 74.6L82.6 71.6L82.15 71.5M2.65 68.85Q1.7 63.4 2.1 57.55L2.55 58.1Q2.7 58.55 2.8 58.4Q2.35 63.75 2.65 68.85M16.95 108Q15.65 106.6 14.55 104.95Q13.9 103.95 13.4 102.85Q11.4 100.65 10 97.9Q9.2 96.3 8.8 94.45Q10.8 98.8 13.4 102.85Q14.85 105.7 16.95 108M49.7 4.9Q51.25 3.5 53.05 2.6Q57.1 1.15 61.55 0Q55.35 1.85 49.7 4.9M78 89.65Q78.65 89.45 79.2 89.05Q80.5 89.15 81.6 88.5L83.05 87.05Q81.4 88.3 79.2 89.05Q78.05 89.75 76.65 89.6Q71.3 91.1 66.15 89.2Q61 87.2 56.95 82.35Q53.05 77.65 51.35 71.6Q49.7 65.25 50.35 59.1Q53.8 43.95 67.7 36.65Q74 33.35 81.15 32.5Q88.5 31.65 95.35 33.35Q105.1 36.4 112.35 43.65Q119.55 50.55 123.3 60.1Q127 69.7 126.7 80Q126.45 90.75 121.85 100.25Q116.25 111.4 106.65 119.15Q97.25 126.55 85.6 129.7Q73.85 132.9 62 131.15Q49.5 129.3 38.95 122.4Q28.45 116 21.05 105.95Q14 96.35 10.75 84.5Q7.4 72.85 7.95 60.55Q8.55 48.25 13 36.8L14.9 34.8Q9.75 47 9.1 60.45Q8.55 73.75 12.55 86.35Q16.7 99.1 25.05 108.85Q33.6 119.25 45.8 124.75Q61.55 131.9 78.75 129.1Q96.35 126.4 109.2 114.25Q120.4 103.7 123.55 87.95Q126.7 72.15 120.7 58Q114.55 45.4 103.2 39.4Q91.65 33.05 78 35.7Q70.95 37.5 66 41.1Q60.85 45 57.4 50.95Q52.05 59 53.95 68.15Q55.35 75 60.55 79.25Q55.95 73.9 55.95 65.9Q55.95 55.7 63.1 47.35Q71.6 38.85 83.45 38.4Q94.8 37.95 104.5 45.1Q118.95 56.3 120.4 74.3Q120.95 82.6 118.4 90.75Q115.8 99.1 110.35 106.1Q96.9 122.95 75.75 124.55Q66.15 125.15 56.25 122.15Q46.55 119.25 37.75 113.1Q28 105.85 22.05 95.55Q16.25 85.5 14.45 74.05Q12.7 62.55 15.15 50.95Q17.6 39.1 24.05 28.65Q31.2 19.15 36.6 14Q41.55 9.35 47.35 6.55Q42.85 9.15 38.75 12.75Q28.9 21.35 22.85 33.5Q16.9 45.55 15.9 58.75Q14.7 72.4 19.25 84.9Q26.45 103.05 42.05 113.8Q58.55 125 76.85 122.4Q89.75 120.7 99.8 113.25Q109.65 105.85 114.95 94.35Q119.55 82.2 117.15 69.7Q114.4 56.15 104.5 48.7Q93.65 40.4 81.6 41.55Q68.6 42.65 62 54.4Q60.9 56.7 60.85 59.1Q59.4 61.95 59.4 64.9L59.4 66.45Q59.55 63 60.85 59.1Q65 49.8 74.3 46Q83.15 42.4 93.1 45.1Q102.65 48.7 108.55 58Q114.55 67.45 113.8 77.9Q112 96.65 98.8 108.4Q89.9 115.25 79.45 117.15Q69.4 118.95 59.2 116.25Q49.25 113.7 41.05 107.1Q32.45 100.35 27.45 90.75Q22.05 80 21.15 68.15Q20.45 56.7 24.15 45.55Q27.75 34.5 35.05 25.3Q42.5 16.05 52.8 9.9Q62.55 4.75 74 2.85Q85.05 1.15 96.2 2.85Q120.1 6.6 135.05 23.65Q138.85 28.65 142.35 34.25Q134.6 23.05 123.4 15.35Q112.35 7.75 99.6 4.75Q86.5 1.7 73.55 4.15Q60 6.6 48.1 14.6Q37.05 22.5 30.35 33.95Q23.85 45.25 22.6 57.85Q21.15 70.7 25.45 82.35Q30 94.75 40.05 103.7Q49.95 111.8 61.85 114.55Q74.4 117.25 86.15 113.1Q98.6 107.65 105.65 96.55Q113.1 84.9 111.55 72.05Q110.65 65.6 106.95 60Q103.5 54.5 98.25 51.25Q92.75 47.8 86.9 47.35Q80.45 46.8 74.55 49.8Q72.9 50.95 72 52.75Q71.55 52.95 71.15 53.25L69.9 55.2Q68 56.45 67.15 58.4L66.15 61.3L66.55 60.45Q67.5 58.55 69.9 55.2Q70.6 53.7 72 52.75Q77.3 48.4 84.5 49Q90.75 49.35 97.65 53.25Q104.4 58.4 107.2 66Q110.1 73.15 109.2 81.45Q107.95 90.05 103.05 96.9Q98.5 103.4 91.3 107.5Q84.3 111.55 76.2 112.4Q67.7 113.4 59.65 110.65Q47.55 106.95 39.2 97.65Q31.45 88.95 28.45 77Q25.45 65.25 27.75 53.4Q30.2 40.95 37.75 31.1Q49.95 16.05 67.6 10.65Q85.5 5.05 103.4 11.2Q120.1 17.5 131.85 30.1Q144 43.1 148.35 60.3Q151.75 78.2 148.15 94.75Q144.45 111.8 133.6 124.85Q130 128.85 125.45 132.7Q138.2 120.95 144.45 103.8Q150.95 85.9 148.35 67.25Q146.6 54.4 140 42.95Q133.7 31.8 123.85 23.75Q113.8 15.6 101.95 12Q89.65 8.2 76.85 9.9Q61.1 12.6 48.65 22.6Q35.9 32.8 30.9 47.35Q27.9 56.15 28.45 65.6Q28.9 74.75 32.6 83.15Q36.35 91.75 42.95 98.25Q49.7 104.95 58.55 108.4Q72.3 113.7 85.9 107.65Q99.35 101.7 104.5 88.5Q107.2 81.2 106.1 73.3Q104.95 65.15 99.95 59.1Q94.45 52.7 86.6 51.95Q83.15 51.75 80.35 53.45Q79.4 53.35 78.45 53.6L76.45 54.4Q78.2 53.3 80.35 53.45Q83.85 52.4 87.3 52.95Q92.1 53.85 95.35 56.85Q101.25 61.85 103.05 69.3Q104.95 76.2 103.05 83.45Q101.35 90.65 96.65 96.35Q91.75 102.35 85.05 104.8Q76.45 108.4 66.7 106.85Q57.1 105.25 49.25 98.9Q36.8 89.65 33.45 73.6Q30.35 58.55 36.6 43.95Q42.5 31.25 54.05 23.5Q65 16.35 78.75 14.9Q92.2 13.6 104.95 18.15Q118.25 23.05 127.55 33.35Q140.65 48.35 143.6 67.9Q146.9 87.35 139 104.8Q133.15 118.7 122 129Q111.25 139.05 97.35 144.3Q83.6 149.6 69 149.2Q53.8 148.9 40.5 142.45L32.8 137.6Q47.35 146.65 64.8 148Q81.6 149.35 97.65 143.45Q113.8 137.3 125.1 125.3Q137.2 112.55 141.3 95.55Q146.6 73.15 138.3 52.85Q129.9 32.1 110.35 21.6Q92.75 12.75 74.3 16.45Q55.4 20.2 43.5 35.7Q35.6 47.35 34.45 60.45Q33.35 74.05 40.05 86.15Q51.35 103.25 68.85 104.8Q75.55 105.25 82.15 102.7Q88.5 100.1 93.1 95.35Q97.8 90.5 99.6 84.15Q101.6 77.75 99.95 70.85Q99.25 65.15 94.65 61.85Q92.45 60.25 89.3 59.55Q95.8 63.15 97.65 69.7Q99.35 73.15 99.35 77.3Q99.35 81.45 97.65 84.9Q92.35 95.65 81.15 99.8Q69.85 104.25 59.65 98.9Q49.5 93.75 43.5 83.35Q37.75 73.15 37.75 61.55Q38.6 49.55 45.55 39.85Q51.95 30.65 62.55 25.3Q73 20.05 84.75 19.75Q97.05 19.6 107.95 25.2Q118.85 30.8 126.3 40.5Q133.3 49.7 136.4 61.45Q139.45 72.75 138.45 84.6Q137.3 96.8 132.15 107.25Q122.55 124.85 104.5 135.05Q86.3 145.3 66.55 143.65Q43.35 141.75 25.05 126.55Q6.85 111.4 0 88.5L0 85.5Q4.15 100.1 13.55 112.25Q22.85 124.15 35.6 131.7Q48.65 139.5 63.1 141.45Q78.3 143.65 93.1 138.85Q107.4 134.15 118.25 123.15Q128.9 112.55 133.7 98.5Q138.75 84.35 136.85 69.85Q134.85 54.4 125.3 41.55Q118.5 32.5 108.95 27.35Q99.6 22.3 89.3 21.5Q78.9 20.75 69.25 24.3Q59.2 27.9 51.7 35.7Q41.05 46.4 39.95 60.55Q38.75 75.2 48.1 87.35Q55.1 95.35 64.1 97.45Q73.3 99.8 82.7 95.55Q86.5 93.75 89.65 90.05Q92.65 86.6 93.9 82.35Q95.35 77.9 94.35 74.05Q93.75 71.85 92.65 70.15L93.1 72.05Q94.8 81.6 87.75 89.05Q80.7 96.35 71.15 95.55Q60.1 94.65 52.25 86.05Q44.35 77.75 43.5 66.15Q43.5 53.95 50.5 43.55Q57.65 33.05 68.85 28.65Q85.15 22.6 102.5 30.1Q110.65 33.5 117.15 39.4Q123.65 45.55 127.55 53.25Q134.4 68.45 132.7 84.6Q131 101.25 120.7 114.25Q105.4 133.25 81.7 137.05Q66.75 139.5 52.8 134.15Q45.05 132.65 37.75 128.3Q34.35 126.15 31.6 123.2Q41 130.35 52.8 134.15Q68.25 138.6 84.05 135.15Q99.6 131.9 112.7 121.25Q124.85 109.85 129.45 94.2Q134.15 78.45 129.9 62.7Q125.55 48.55 114.4 38.95Q103.05 29.2 88.5 27.5Q80.7 27.1 73 29.9Q65.55 32.8 59.55 38.05Q53.4 43.55 50.1 50.55Q46.55 58.1 46.9 66.15Q47.35 72.3 50.7 77.9Q53.7 83.45 58.65 87.05Q63.8 90.75 69.4 91.2Q73.25 91.55 76.65 89.6Q77.4 89.85 78 89.65" />
</g>
<g id="PathID_118" transform="matrix(-0.0668824, -5.60769e-009, 0, 0.0641445, 108.5, 20.7)" opacity="1">
</g>
<g id="PathID_119" transform="matrix(1, 0, -0.00955246, 1.18649, 34.35, 23.7)" opacity="1">
<path style="fill:#FFFFFF;fill-opacity:1" d="M30.3 3.85Q27.5 2.25 26.15 1.8Q21.8 -0.45 21.5 0.4Q22.45 1.1 19.85 5.75Q7.6 20.3 -10.1 13.95Q-24.05 15.2 -28.9 5.4Q-32.6 -4.1 -26.15 -9.2Q-18.6 -14.15 -7.55 -15.35Q4.6 -16.5 13.45 -14.45Q23.45 -12.25 23.45 -7.5Q30.3 -2.75 30.3 3.85" />
</g>
<g id="PathID_120" transform="matrix(1, 0, -0.00955246, 1.18649, 34.35, 23.7)" opacity="1">
<path style="fill:none;stroke-width:1;stroke-linecap:round;stroke-linejoin:round;stroke-miterlimit:3;stroke:#000000;stroke-opacity:1" d="M23.45 -7.45Q23.45 -12.2 13.45 -14.4Q4.6 -16.45 -7.55 -15.35Q-18.55 -14.1 -26.1 -9.2Q-32.55 -4.1 -28.9 5.4Q-24 15.15 -10.05 13.95Q7.6 20.25 19.8 5.75Q22.45 1.1 21.45 0.4Q21.8 -0.4 26.15 1.75Q27.5 2.25 30.3 3.85Q30.3 -2.75 23.45 -7.45z" />
</g>
<g id="PathID_121" transform="matrix(0.136951, 0, 0, 0.136951, 19.2, 19.7)" opacity="1">
<path style="fill:#000000;fill-opacity:1" d="M16.5 -4.25Q16.5 0.4 11.75 0.4Q7.15 0.4 7.15 -4.25L7.15 -9.1Q7.15 -10.4 8.45 -12.6Q9.75 -14.8 9.75 -16.05Q9.75 -17.25 8.7 -18.15Q7.7 -19.05 6.3 -19.05Q4 -19.05 2.85 -17.5Q3.3 -17.7 4 -17.7Q5.35 -17.7 6.2 -16.85Q7.05 -16 7.05 -14.7Q7.05 -13.35 6.2 -12.45Q5.35 -11.6 4 -11.6Q2.4 -11.6 1.55 -12.75Q0.75 -13.95 0.75 -15.65Q0.75 -17.55 2.2 -19Q3.65 -20.5 6.25 -20.5Q8.5 -20.5 9.95 -19.35Q11.45 -18.2 11.45 -16.3Q11.45 -14.8 10.2 -12.4Q9 -10 9 -8.85L9 -4.1Q9 -1.25 11.8 -1.25Q14.65 -1.25 14.65 -4.1L14.65 -20.05L16.5 -20.05L16.5 -4.25M5.65 -14.65Q5.65 -15.35 5.15 -15.8Q4.7 -16.3 4 -16.3Q3.3 -16.3 2.85 -15.8Q2.4 -15.35 2.4 -14.65Q2.4 -13.95 2.85 -13.5Q3.3 -13.05 4 -13.05Q4.7 -13.05 5.15 -13.5Q5.65 -13.95 5.65 -14.65" />
</g>
<g id="PathID_122" transform="matrix(0.136951, 0, 0, 0.136951, 19.2, 19.7)" opacity="1">
</g>
<g id="PathID_123" transform="matrix(0.136951, 0, 0, 0.136951, 21.85, 19.7)" opacity="1">
<path style="fill:#000000;fill-opacity:1" d="M2.15 -42.25Q1.4 -37.85 -1.65 -36.05Q-4.1 -34.65 -8.45 -34.65L-9.4 -34.65L-9.4 -35.6Q-7.7 -36.3 -7 -37.6Q-8 -37.6 -8.75 -38.3Q-9.55 -39.05 -9.55 -40.15Q-9.55 -41.25 -8.75 -42Q-8 -42.8 -6.95 -42.8Q-5.9 -42.8 -5.2 -42.05Q-4.5 -41.35 -4.4 -40.15Q-4.4 -37.6 -6.7 -35.95Q-0.6 -36.45 0.25 -42.25L2.15 -42.25M-5.8 -40.15Q-5.8 -40.65 -6.1 -41Q-6.45 -41.4 -6.95 -41.4Q-7.45 -41.4 -7.8 -41Q-8.15 -40.65 -8.15 -40.15Q-8.15 -39.65 -7.8 -39.3Q-7.45 -39 -6.95 -39Q-6.45 -39 -6.1 -39.3Q-5.8 -39.65 -5.8 -40.15" />
</g>
<g id="PathID_124" transform="matrix(0.136951, 0, 0, 0.136951, 21.85, 19.7)" opacity="1">
</g>
<g id="PathID_125" transform="matrix(0.136951, 0, 0, 0.136951, 21.85, 19.7)" opacity="1">
<path style="fill:#000000;fill-opacity:1" d="M8.45 -10.65Q8.45 -11.35 7.9 -11.85Q7.4 -12.4 6.7 -12.4Q5.95 -12.4 5.45 -11.85Q4.95 -11.35 4.95 -10.65Q4.95 -9.9 5.45 -9.4Q5.95 -8.9 6.7 -8.9Q7.4 -8.9 7.9 -9.4Q8.45 -9.9 8.45 -10.65M16.95 -4.35Q16.8 0.4 10.05 0.4Q3.3 0.4 3.3 -4.35L3.3 -10.65Q3.3 -12.05 4.3 -13.05Q5.3 -14.05 6.7 -14.05Q8.05 -14.05 9.05 -13Q10.1 -12 10.1 -10.65Q10.1 -9.25 9.15 -8.25Q8.2 -7.25 6.65 -7.25Q5.8 -7.25 5.15 -7.6L5.15 -4.75Q5.15 -1.3 10.15 -1.3Q15.1 -1.3 15.1 -4.75L15.1 -14.25Q15.1 -16.4 13.3 -17.7Q11.65 -18.85 9.25 -18.85Q7.15 -18.85 5.4 -17.85Q3.55 -16.8 3.2 -15.15L1.35 -15.15Q1.85 -17.55 4 -19Q6.2 -20.5 9.35 -20.5Q12.35 -20.5 14.45 -19.05Q16.95 -17.4 16.95 -14.6L16.95 -4.35" />
</g>
<g id="PathID_126" transform="matrix(0.136951, 0, 0, 0.136951, 21.85, 19.7)" opacity="1">
</g>
<g id="PathID_127" transform="matrix(0.136951, 0, 0, 0.136951, 24.55, 19.7)" opacity="1">
<path style="fill:#000000;fill-opacity:1" d="M17.6 0L15.6 0Q11.6 -3.05 8.1 -4.05Q8.3 -3.55 8.3 -3.1Q8.3 -1.6 7.2 -0.6Q6.15 0.4 4.65 0.4Q3.2 0.4 2.15 -0.6Q1.15 -1.6 1.15 -3.1Q1.15 -4.6 2.15 -5.65Q3.2 -6.7 4.7 -6.7Q5.25 -6.7 5.8 -6.5L5.8 -14.05Q5.1 -13.7 4.25 -13.7Q2.85 -13.7 1.85 -14.7Q0.85 -15.7 0.85 -17.1Q0.85 -18.45 1.85 -19.45Q2.85 -20.5 4.25 -20.5Q5.6 -20.5 6.6 -19.5Q7.65 -18.5 7.65 -17.1L7.65 -6.05Q12.65 -4.25 15.75 -1.9L15.75 -20.05L17.6 -20.05L17.6 0M6.6 -3.15Q6.6 -3.9 6 -4.45Q5.45 -5.05 4.7 -5.05Q3.9 -5.05 3.35 -4.45Q2.8 -3.9 2.8 -3.15Q2.8 -2.4 3.35 -1.85Q3.9 -1.3 4.7 -1.3Q5.45 -1.3 6 -1.85Q6.6 -2.4 6.6 -3.15M6 -17.1Q6 -17.8 5.45 -18.3Q4.95 -18.85 4.25 -18.85Q3.5 -18.85 3 -18.3Q2.5 -17.8 2.5 -17.1Q2.5 -16.35 3 -15.85Q3.5 -15.35 4.25 -15.35Q4.95 -15.35 5.45 -15.85Q6 -16.35 6 -17.1" />
</g>
<g id="PathID_128" transform="matrix(0.136951, 0, 0, 0.136951, 24.55, 19.7)" opacity="1">
</g>
<g id="PathID_129" transform="matrix(0.136951, 0, 0, 0.136951, 27.35, 19.7)" opacity="1">
<path style="fill:#000000;fill-opacity:1" d="M-2.85 9.4Q-2.85 12.55 -6.6 12.55Q-10.05 12.55 -10.05 9.5L-10.05 7.75Q-10.5 7.9 -11 7.9Q-12.15 7.9 -12.9 7.1Q-13.7 6.35 -13.7 5.2Q-13.7 4.05 -12.9 3.25Q-12.15 2.45 -11 2.45Q-9.85 2.45 -9.05 3.25Q-8.25 4.05 -8.25 5.2L-8.25 9.8Q-8.25 10.95 -6.45 10.95Q-4.7 10.95 -4.7 9.8L-4.7 2.65L-2.85 2.65L-2.85 9.4M-9.65 5.15Q-9.65 4.6 -10.05 4.2Q-10.45 3.8 -11 3.8Q-11.55 3.8 -11.9 4.2Q-12.3 4.6 -12.3 5.15Q-12.3 5.7 -11.9 6.05Q-11.55 6.45 -11 6.45Q-10.45 6.45 -10.05 6.05Q-9.65 5.7 -9.65 5.15" />
</g>
<g id="PathID_130" transform="matrix(0.136951, 0, 0, 0.136951, 27.35, 19.7)" opacity="1">
</g>
<g id="PathID_131" transform="matrix(0.136951, 0, 0, 0.136951, 27.35, 19.7)" opacity="1">
<path style="fill:#000000;fill-opacity:1" d="M16.65 0L14.8 0L14.8 -8.75Q14.8 -10.55 12.9 -11.6Q11.3 -12.5 9.2 -12.5Q7.15 -12.5 5.7 -11.35Q4.3 -10.25 4.3 -8.55L4.25 -5.95Q5 -6.35 5.95 -6.35Q7.4 -6.35 8.35 -5.35Q9.35 -4.35 9.35 -2.95Q9.35 -1.55 8.35 -0.55Q7.4 0.4 5.95 0.4Q4.35 0.4 3.4 -0.6Q2.45 -1.6 2.45 -3L2.45 -8.55Q2.45 -11.1 4.5 -12.75Q6.35 -14.3 9.05 -14.3Q12.6 -14.3 14.8 -12.25L14.8 -14.75Q14.8 -16.6 12.85 -17.8Q11.15 -18.85 9.1 -18.85Q6.95 -18.85 5.2 -17.9Q3.3 -16.9 2.85 -15.15L1.05 -15.15Q1.4 -17.5 3.8 -19.05Q6.05 -20.5 9 -20.5Q11.95 -20.5 14.1 -19.1Q16.65 -17.45 16.65 -14.65L16.65 0M7.65 -2.9Q7.65 -3.6 7.1 -4.1Q6.6 -4.65 5.9 -4.65Q5.2 -4.65 4.7 -4.1Q4.25 -3.6 4.25 -2.9Q4.25 -2.2 4.7 -1.7Q5.2 -1.25 5.9 -1.25Q6.6 -1.25 7.1 -1.7Q7.65 -2.2 7.65 -2.9" />
</g>
<g id="PathID_132" transform="matrix(0.136951, 0, 0, 0.136951, 27.35, 19.7)" opacity="1">
</g>
<g id="PathID_133" transform="matrix(0.136951, 0, 0, 0.136951, 30, 19.7)" opacity="1">
<path style="fill:#000000;fill-opacity:1" d="M16.5 -4.25Q16.5 0.4 11.75 0.4Q7.15 0.4 7.15 -4.25L7.15 -9.1Q7.15 -10.4 8.45 -12.6Q9.75 -14.8 9.75 -16.05Q9.75 -17.25 8.7 -18.15Q7.7 -19.05 6.3 -19.05Q4 -19.05 2.85 -17.5Q3.3 -17.7 4 -17.7Q5.35 -17.7 6.2 -16.85Q7.05 -16 7.05 -14.7Q7.05 -13.35 6.2 -12.45Q5.35 -11.6 4 -11.6Q2.4 -11.6 1.55 -12.75Q0.75 -13.95 0.75 -15.65Q0.75 -17.55 2.2 -19Q3.65 -20.5 6.25 -20.5Q8.5 -20.5 9.95 -19.35Q11.45 -18.2 11.45 -16.3Q11.45 -14.8 10.2 -12.4Q9 -10 9 -8.85L9 -4.1Q9 -1.25 11.8 -1.25Q14.65 -1.25 14.65 -4.1L14.65 -20.05L16.5 -20.05L16.5 -4.25M5.65 -14.65Q5.65 -15.35 5.15 -15.8Q4.7 -16.3 4 -16.3Q3.3 -16.3 2.85 -15.8Q2.4 -15.35 2.4 -14.65Q2.4 -13.95 2.85 -13.5Q3.3 -13.05 4 -13.05Q4.7 -13.05 5.15 -13.5Q5.65 -13.95 5.65 -14.65" />
</g>
<g id="PathID_134" transform="matrix(0.136951, 0, 0, 0.136951, 30, 19.7)" opacity="1">
</g>
<g id="PathID_135" transform="matrix(0.136951, 0, 0, 0.136951, 32.65, 19.7)" opacity="1">
<path style="fill:#000000;fill-opacity:1" d="M8.45 -10.65Q8.45 -11.35 7.9 -11.85Q7.4 -12.4 6.7 -12.4Q5.95 -12.4 5.45 -11.85Q4.95 -11.35 4.95 -10.65Q4.95 -9.9 5.45 -9.4Q5.95 -8.9 6.7 -8.9Q7.4 -8.9 7.9 -9.4Q8.45 -9.9 8.45 -10.65M16.95 -4.35Q16.8 0.4 10.05 0.4Q3.3 0.4 3.3 -4.35L3.3 -10.65Q3.3 -12.05 4.3 -13.05Q5.3 -14.05 6.7 -14.05Q8.05 -14.05 9.05 -13Q10.1 -12 10.1 -10.65Q10.1 -9.25 9.15 -8.25Q8.2 -7.25 6.65 -7.25Q5.8 -7.25 5.15 -7.6L5.15 -4.75Q5.15 -1.3 10.15 -1.3Q15.1 -1.3 15.1 -4.75L15.1 -14.25Q15.1 -16.4 13.3 -17.7Q11.65 -18.85 9.25 -18.85Q7.15 -18.85 5.4 -17.85Q3.55 -16.8 3.2 -15.15L1.35 -15.15Q1.85 -17.55 4 -19Q6.2 -20.5 9.35 -20.5Q12.35 -20.5 14.45 -19.05Q16.95 -17.4 16.95 -14.6L16.95 -4.35" />
</g>
<g id="PathID_136" transform="matrix(0.136951, 0, 0, 0.136951, 32.65, 19.7)" opacity="1">
</g>
<g id="PathID_137" transform="matrix(0.136951, 0, 0, 0.136951, 35.35, 19.7)" opacity="1">
<path style="fill:#000000;fill-opacity:1" d="M12.2 0L10.35 0L0.8 -10.65L1.85 -11.8L10.35 -2.6L10.35 -14.05Q9.6 -13.7 8.75 -13.7Q7.35 -13.7 6.35 -14.7Q5.4 -15.7 5.4 -17Q5.4 -18.5 6.35 -19.5Q7.3 -20.5 8.75 -20.5Q10.4 -20.5 11.35 -19.4Q12.2 -18.45 12.2 -17.05L12.2 0M10.5 -17.15Q10.5 -17.85 9.95 -18.35Q9.45 -18.9 8.75 -18.9Q8.05 -18.9 7.55 -18.35Q7.05 -17.85 7.05 -17.15Q7.05 -16.4 7.55 -15.9Q8.05 -15.4 8.75 -15.4Q9.45 -15.4 9.95 -15.9Q10.5 -16.4 10.5 -17.15" />
</g>
<g id="PathID_138" transform="matrix(0.136951, 0, 0, 0.136951, 35.35, 19.7)" opacity="1">
</g>
<g id="PathID_139" transform="matrix(0.136951, 0, 0, 0.136951, 37.45, 19.7)" opacity="1">
<path style="fill:#000000;fill-opacity:1" d="M17.25 0L15.4 0L15.4 -13.75Q15.4 -16.2 13.55 -17.5Q11.75 -18.85 9.4 -18.85Q7.05 -18.85 5.3 -17.2Q3.55 -15.6 3.55 -13.25Q3.55 -12.1 3.95 -10.55L4.55 -7.95Q5.05 -10.9 6.15 -12.9Q7.65 -15.6 9.9 -15.6Q11.2 -15.6 12 -14.75Q12.85 -13.95 12.85 -12.6Q12.85 -11.3 11.95 -10.4Q11.1 -9.55 9.8 -9.55Q8.5 -9.55 7.45 -10.75Q6.75 -9.65 6 -7.65Q5.15 -5.2 5.15 -3.3L5.15 0L3.3 0L3.3 -4.7Q3.3 -6.2 2.5 -8.9Q1.7 -11.6 1.7 -13.05Q1.7 -16.4 3.95 -18.45Q6.2 -20.5 9.55 -20.5Q12.65 -20.5 14.95 -18.8Q17.25 -17.15 17.25 -13.9L17.25 0M11.4 -12.55Q11.4 -13.2 10.9 -13.65Q10.45 -14.15 9.8 -14.15Q9.15 -14.15 8.7 -13.65Q8.25 -13.2 8.25 -12.55Q8.25 -11.9 8.7 -11.45Q9.15 -11 9.8 -11Q10.45 -11 10.9 -11.45Q11.4 -11.9 11.4 -12.55" />
</g>
<g id="PathID_140" transform="matrix(0.136951, 0, 0, 0.136951, 37.45, 19.7)" opacity="1">
</g>
<g id="PathID_141" transform="matrix(0.136951, 0, 0, 0.136951, 40.15, 19.7)" opacity="1">
<path style="fill:#000000;fill-opacity:1" d="M-2.85 11.9L-4.65 11.9L-4.65 7.75Q-5.1 7.9 -5.6 7.9Q-6.75 7.9 -7.5 7.1Q-8.3 6.35 -8.3 5.2Q-8.3 4.05 -7.5 3.25Q-6.75 2.45 -5.6 2.45Q-4.45 2.45 -3.65 3.25Q-2.85 4.05 -2.85 5.2L-2.85 11.9M-4.25 5.15Q-4.25 4.6 -4.65 4.2Q-5.05 3.8 -5.6 3.8Q-6.15 3.8 -6.5 4.2Q-6.9 4.6 -6.9 5.15Q-6.9 5.7 -6.5 6.05Q-6.15 6.45 -5.6 6.45Q-5.05 6.45 -4.65 6.05Q-4.25 5.7 -4.25 5.15" />
</g>
<g id="PathID_142" transform="matrix(0.136951, 0, 0, 0.136951, 40.15, 19.7)" opacity="1">
</g>
<g id="PathID_143" transform="matrix(0.136951, 0, 0, 0.136951, 40.15, 19.7)" opacity="1">
<path style="fill:#000000;fill-opacity:1" d="M26.05 -2.85Q26.05 -1.4 25.05 -0.45Q24.05 0.45 22.55 0.45Q21.15 0.45 20.15 -0.45Q19.2 -1.4 19.2 -2.85L19.2 -3.15Q17.3 -2.45 15.9 0L13.7 0L13.7 -13.55Q13.7 -18.85 8.7 -18.85Q7.1 -18.85 5.65 -17.85Q4.25 -16.9 3.7 -15.3Q6.55 -15.1 7.8 -13.05Q6.55 -12.8 5.65 -11.7Q4.75 -10.65 4.75 -9.3L4.75 -5.95Q5.4 -6.3 6.25 -6.3Q7.7 -6.3 8.7 -5.3Q9.7 -4.35 9.7 -2.95Q9.7 -1.45 8.7 -0.5Q7.75 0.45 6.3 0.45Q4.8 0.45 3.85 -0.5Q2.9 -1.5 2.9 -3L2.9 -9.25Q2.9 -12 5.55 -13.3Q3.6 -14.05 1.5 -13.85Q1.95 -16.75 3.95 -18.6Q6 -20.5 8.8 -20.5Q12 -20.5 13.75 -18.75Q15.55 -17 15.55 -13.75L15.55 -2.45Q16.7 -4 18.8 -4.95Q21.35 -6.2 21.8 -6.55Q23.1 -7.65 23.1 -9.95L23.1 -20.05L24.95 -20.05L24.95 -10.05Q24.95 -7 23.95 -6Q26.05 -5.15 26.05 -2.85M8.05 -2.9Q8.05 -3.6 7.5 -4.1Q7 -4.65 6.25 -4.65Q5.55 -4.65 5.05 -4.1Q4.6 -3.6 4.6 -2.9Q4.6 -2.2 5.05 -1.7Q5.55 -1.25 6.25 -1.25Q7 -1.25 7.5 -1.7Q8.05 -2.2 8.05 -2.9M24.35 -2.85Q24.35 -3.55 23.8 -4.05Q23.3 -4.6 22.6 -4.6Q21.85 -4.6 21.35 -4.05Q20.85 -3.55 20.85 -2.85Q20.85 -2.15 21.35 -1.6Q21.85 -1.1 22.6 -1.1Q23.3 -1.1 23.8 -1.6Q24.35 -2.15 24.35 -2.85" />
</g>
<g id="PathID_144" transform="matrix(0.136951, 0, 0, 0.136951, 40.15, 19.7)" opacity="1">
</g>
<g id="PathID_145" transform="matrix(0.134379, 0, 0, 0.134379, 10, 29.2)" opacity="1">
<path style="fill:#000000;fill-opacity:1" d="M15.9 -3.3Q15.9 0.45 12.25 0.45Q9.4 0.45 9 -2.4L8.15 -8.15Q7.35 -7.7 6.35 -7.7Q5.1 -7.7 4.2 -8.55Q3.35 -9.4 3.35 -10.7Q3.35 -12.05 4.2 -12.95Q5.05 -13.85 6.35 -13.85Q7.5 -13.85 8.35 -13.1Q9.25 -12.35 9.45 -11.2L10.95 -2.5Q11.15 -1.25 12.35 -1.25Q14.05 -1.25 14.05 -3.05L14.05 -15.1Q14.05 -17.1 12.45 -17.95Q10.85 -18.8 8.75 -18.8Q6.45 -18.8 4.95 -17.8Q3.45 -16.85 3.1 -15.15L1.2 -15.15Q1.45 -17.3 3.2 -18.7Q5.3 -20.5 8.7 -20.5Q15.9 -20.5 15.9 -15.1L15.9 -3.3M8.05 -10.65Q8.05 -11.35 7.55 -11.8Q7.1 -12.3 6.4 -12.3Q5.75 -12.3 5.3 -11.8Q4.9 -11.35 4.9 -10.65Q4.9 -10 5.3 -9.55Q5.75 -9.15 6.4 -9.15Q7.1 -9.15 7.55 -9.55Q8.05 -10 8.05 -10.65" />
</g>
<g id="PathID_146" transform="matrix(0.134379, 0, 0, 0.134379, 10, 29.2)" opacity="1">
</g>
<g id="PathID_147" transform="matrix(0.134379, 0, 0, 0.134379, 12.5, 29.2)" opacity="1">
<path style="fill:#000000;fill-opacity:1" d="M15.5 -19.55Q15.35 -16.05 13.35 -13.85Q11.4 -11.65 8.2 -11.65Q5.6 -11.65 3.8 -12.6Q1.6 -13.75 1.6 -16.1Q1.6 -17.45 2.55 -18.4Q3.5 -19.4 4.85 -19.4Q6.15 -19.4 7.1 -18.4Q8.1 -17.45 8.1 -16.1Q8.1 -14.4 6.65 -13.4Q7.45 -13.25 7.9 -13.25Q10.65 -13.35 12.05 -15.05Q13.5 -16.75 13.65 -19.55L15.5 -19.55M6.4 -16.1Q6.4 -16.8 5.9 -17.25Q5.45 -17.75 4.75 -17.75Q4.05 -17.75 3.6 -17.25Q3.2 -16.8 3.2 -16.1Q3.2 -15.4 3.6 -14.95Q4.05 -14.55 4.75 -14.55Q5.45 -14.55 5.9 -14.95Q6.4 -15.4 6.4 -16.1M15.5 -8.7Q15.35 -5.2 13.35 -3Q11.4 -0.8 8.2 -0.8Q5.6 -0.8 3.8 -1.75Q1.6 -2.9 1.6 -5.25Q1.6 -6.6 2.55 -7.55Q3.5 -8.55 4.85 -8.55Q6.15 -8.55 7.1 -7.55Q8.1 -6.6 8.1 -5.25Q8.1 -3.55 6.65 -2.55Q7.45 -2.4 7.9 -2.4Q10.65 -2.5 12.05 -4.2Q13.5 -5.9 13.65 -8.7L15.5 -8.7M6.4 -5.25Q6.4 -5.95 5.9 -6.4Q5.45 -6.9 4.75 -6.9Q4.05 -6.9 3.6 -6.4Q3.2 -5.95 3.2 -5.25Q3.2 -4.55 3.6 -4.1Q4.05 -3.7 4.75 -3.7Q5.45 -3.7 5.9 -4.1Q6.4 -4.55 6.4 -5.25" />
</g>
<g id="PathID_148" transform="matrix(0.134379, 0, 0, 0.134379, 12.5, 29.2)" opacity="1">
</g>
<g id="PathID_149" transform="matrix(0.134379, 0, 0, 0.134379, 14.95, 29.2)" opacity="1">
<path style="fill:#000000;fill-opacity:1" d="M16.5 0L14.65 0L14.65 -13.35Q14.65 -15.95 13.1 -17.4Q11.55 -18.85 9.05 -18.85Q7.3 -18.85 5.7 -17.85Q4.15 -16.85 3.55 -15.3Q6.6 -15.05 7.55 -13.1Q6.35 -12.85 5.45 -11.75Q4.55 -10.65 4.55 -9.35L4.55 -6.05Q5.4 -6.4 6.1 -6.4Q7.55 -6.4 8.55 -5.4Q9.55 -4.4 9.55 -2.95Q9.55 -1.4 8.55 -0.5Q7.6 0.4 6.1 0.4Q4.65 0.4 3.7 -0.55Q2.75 -1.5 2.75 -2.95L2.75 -9.3Q2.75 -12.05 5.35 -13.35Q3.95 -13.9 1.35 -13.9Q1.75 -16.75 4 -18.6Q6.25 -20.5 9.15 -20.5Q12.45 -20.5 14.45 -18.65Q16.5 -16.8 16.5 -13.55L16.5 0M7.9 -2.9Q7.9 -3.65 7.35 -4.15Q6.85 -4.7 6.1 -4.7Q5.4 -4.7 4.9 -4.15Q4.45 -3.65 4.45 -2.9Q4.45 -2.2 4.9 -1.7Q5.4 -1.25 6.1 -1.25Q6.85 -1.25 7.35 -1.7Q7.9 -2.2 7.9 -2.9" />
</g>
<g id="PathID_150" transform="matrix(0.134379, 0, 0, 0.134379, 14.95, 29.2)" opacity="1">
</g>
<g id="PathID_151" transform="matrix(0.134379, 0, 0, 0.134379, 17.55, 29.2)" opacity="1">
<path style="fill:#000000;fill-opacity:1" d="M-2.85 9.4Q-2.85 12.55 -6.6 12.55Q-10.05 12.55 -10.05 9.5L-10.05 7.75Q-10.5 7.9 -11 7.9Q-12.15 7.9 -12.9 7.1Q-13.7 6.35 -13.7 5.2Q-13.7 4.05 -12.9 3.25Q-12.15 2.45 -11 2.45Q-9.85 2.45 -9.05 3.25Q-8.25 4.05 -8.25 5.2L-8.25 9.8Q-8.25 10.95 -6.45 10.95Q-4.7 10.95 -4.7 9.8L-4.7 2.65L-2.85 2.65L-2.85 9.4M-9.65 5.15Q-9.65 4.6 -10.05 4.2Q-10.45 3.8 -11 3.8Q-11.55 3.8 -11.9 4.2Q-12.3 4.6 -12.3 5.15Q-12.3 5.7 -11.9 6.05Q-11.55 6.45 -11 6.45Q-10.45 6.45 -10.05 6.05Q-9.65 5.7 -9.65 5.15" />
</g>
<g id="PathID_152" transform="matrix(0.134379, 0, 0, 0.134379, 17.55, 29.2)" opacity="1">
</g>
<g id="PathID_153" transform="matrix(0.134379, 0, 0, 0.134379, 17.55, 29.2)" opacity="1">
<path style="fill:#000000;fill-opacity:1" d="M16.9 0L15.05 0L15.05 -13.35Q15.05 -15.85 13.45 -17.35Q11.9 -18.85 9.45 -18.85Q7.7 -18.85 6.05 -17.85Q4.4 -16.9 3.8 -15.35Q6.8 -15.1 7.95 -13.1Q6.7 -12.85 5.8 -11.75Q4.9 -10.65 4.9 -9.3L4.9 0L3.05 0L3.05 -9.25Q3.05 -12.3 5.7 -13.35Q4 -14.15 1.8 -13.9Q2.2 -16.8 4.35 -18.65Q6.55 -20.5 9.55 -20.5Q12.85 -20.5 14.85 -18.65Q16.9 -16.8 16.9 -13.55L16.9 0" />
</g>
<g id="PathID_154" transform="matrix(0.134379, 0, 0, 0.134379, 17.55, 29.2)" opacity="1">
</g>
<g id="PathID_155" transform="matrix(0.134379, 0, 0, 0.134379, 20.2, 29.2)" opacity="1">
<path style="fill:#000000;fill-opacity:1" d="M9.65 -3.15Q9.65 -1.7 8.6 -0.7Q7.6 0.3 6.2 0.3Q4.6 0.3 3.55 -0.8Q2.7 -1.8 2.7 -3.15L2.7 -20.5L4.55 -20.5L4.55 -6.15Q5.25 -6.6 6.15 -6.6Q7.6 -6.6 8.6 -5.6Q9.65 -4.6 9.65 -3.15M7.95 -3.15Q7.95 -3.85 7.4 -4.35Q6.9 -4.9 6.2 -4.9Q5.45 -4.9 4.95 -4.35Q4.45 -3.85 4.45 -3.15Q4.45 -2.4 4.95 -1.9Q5.45 -1.4 6.2 -1.4Q6.9 -1.4 7.4 -1.9Q7.95 -2.4 7.95 -3.15" />
</g>
<g id="PathID_156" transform="matrix(0.134379, 0, 0, 0.134379, 20.2, 29.2)" opacity="1">
</g>
<g id="PathID_157" transform="matrix(0.134379, 0, 0, 0.134379, 21.6, 29.2)" opacity="1">
<path style="fill:#000000;fill-opacity:1" d="M16.9 0L15.05 0L15.05 -13.35Q15.05 -15.85 13.45 -17.35Q11.9 -18.85 9.45 -18.85Q7.7 -18.85 6.05 -17.85Q4.4 -16.9 3.8 -15.35Q6.8 -15.1 7.95 -13.1Q6.7 -12.85 5.8 -11.75Q4.9 -10.65 4.9 -9.3L4.9 0L3.05 0L3.05 -9.25Q3.05 -12.3 5.7 -13.35Q4 -14.15 1.8 -13.9Q2.2 -16.8 4.35 -18.65Q6.55 -20.5 9.55 -20.5Q12.85 -20.5 14.85 -18.65Q16.9 -16.8 16.9 -13.55L16.9 0" />
</g>
<g id="PathID_158" transform="matrix(0.134379, 0, 0, 0.134379, 21.6, 29.2)" opacity="1">
</g>
<g id="PathID_159" transform="matrix(0.134379, 0, 0, 0.134379, 24.25, 29.2)" opacity="1">
<path style="fill:#000000;fill-opacity:1" d="M-2.75 -26.15Q-2.75 -25 -3.55 -24.3Q-4.35 -23.6 -5.4 -23.6Q-7.55 -23.6 -10.3 -25.8Q-11.7 -25.3 -12.9 -23.55Q-14.95 -24.8 -14.95 -27.55Q-14.95 -31.55 -10.6 -31.55L-7.2 -31.55Q-4.7 -31.55 -4.5 -35.25L-2.8 -35.25Q-2.8 -33.05 -3.95 -31.55Q-5.1 -30.1 -7.3 -30.1L-10.8 -30.1Q-13.25 -30.1 -13.25 -27.7Q-13.25 -26.55 -12.7 -25.65Q-11.45 -27.1 -10.1 -27.3Q-9.2 -26.55 -7.55 -25.45L-7.6 -26.15Q-7.6 -27.15 -6.9 -27.85Q-6.25 -28.55 -5.25 -28.55Q-4.2 -28.55 -3.45 -27.8Q-2.75 -27.1 -2.75 -26.15M-4.1 -26.15Q-4.1 -26.6 -4.45 -26.95Q-4.8 -27.3 -5.25 -27.3Q-5.7 -27.3 -6 -26.95Q-6.35 -26.6 -6.35 -26.15Q-6.35 -25.7 -6 -25.35Q-5.7 -25.05 -5.25 -25.05Q-4.8 -25.05 -4.45 -25.35Q-4.1 -25.7 -4.1 -26.15" />
</g>
<g id="PathID_160" transform="matrix(0.134379, 0, 0, 0.134379, 24.25, 29.2)" opacity="1">
</g>
<g id="PathID_161" transform="matrix(0.134379, 0, 0, 0.134379, 24.25, 29.2)" opacity="1">
<path style="fill:#000000;fill-opacity:1" d="M19.05 -4.35Q19.05 0.4 12.45 0.4Q5.8 0.4 5.8 -4.35L5.8 -14.05Q5.1 -13.7 4.25 -13.7Q2.85 -13.7 1.85 -14.7Q0.85 -15.7 0.85 -17.1Q0.85 -18.45 1.85 -19.45Q2.85 -20.5 4.25 -20.5Q5.6 -20.5 6.6 -19.5Q7.65 -18.5 7.65 -17.1L7.65 -4.5Q7.65 -1.3 12.45 -1.3Q17.2 -1.3 17.2 -4.5L17.2 -20.05L19.05 -20.05L19.05 -4.35M6 -17.1Q6 -17.8 5.45 -18.3Q4.95 -18.85 4.25 -18.85Q3.5 -18.85 3 -18.3Q2.5 -17.8 2.5 -17.1Q2.5 -16.35 3 -15.85Q3.5 -15.35 4.25 -15.35Q4.95 -15.35 5.45 -15.85Q6 -16.35 6 -17.1" />
</g>
<g id="PathID_162" transform="matrix(0.134379, 0, 0, 0.134379, 24.25, 29.2)" opacity="1">
</g>
<g id="PathID_163" transform="matrix(0.134379, 0, 0, 0.134379, 27.2, 29.2)" opacity="1">
<path style="fill:#000000;fill-opacity:1" d="M9.65 -3.15Q9.65 -1.7 8.6 -0.7Q7.6 0.3 6.2 0.3Q4.6 0.3 3.55 -0.8Q2.7 -1.8 2.7 -3.15L2.7 -20.5L4.55 -20.5L4.55 -6.15Q5.25 -6.6 6.15 -6.6Q7.6 -6.6 8.6 -5.6Q9.65 -4.6 9.65 -3.15M7.95 -3.15Q7.95 -3.85 7.4 -4.35Q6.9 -4.9 6.2 -4.9Q5.45 -4.9 4.95 -4.35Q4.45 -3.85 4.45 -3.15Q4.45 -2.4 4.95 -1.9Q5.45 -1.4 6.2 -1.4Q6.9 -1.4 7.4 -1.9Q7.95 -2.4 7.95 -3.15" />
</g>
<g id="PathID_164" transform="matrix(0.134379, 0, 0, 0.134379, 27.2, 29.2)" opacity="1">
</g>
<g id="PathID_165" transform="matrix(0.134379, 0, 0, 0.134379, 28.6, 29.2)" opacity="1">
<path style="fill:#000000;fill-opacity:1" d="M19.05 -4.35Q19.05 0.4 12.45 0.4Q5.8 0.4 5.8 -4.35L5.8 -14.05Q5.1 -13.7 4.25 -13.7Q2.85 -13.7 1.85 -14.7Q0.85 -15.7 0.85 -17.1Q0.85 -18.45 1.85 -19.45Q2.85 -20.5 4.25 -20.5Q5.6 -20.5 6.6 -19.5Q7.65 -18.5 7.65 -17.1L7.65 -4.5Q7.65 -1.3 12.45 -1.3Q17.2 -1.3 17.2 -4.5L17.2 -28.6L19.05 -28.6L19.05 -4.35M6 -17.1Q6 -17.8 5.45 -18.3Q4.95 -18.85 4.25 -18.85Q3.5 -18.85 3 -18.3Q2.5 -17.8 2.5 -17.1Q2.5 -16.35 3 -15.85Q3.5 -15.35 4.25 -15.35Q4.95 -15.35 5.45 -15.85Q6 -16.35 6 -17.1" />
</g>
<g id="PathID_166" transform="matrix(0.134379, 0, 0, 0.134379, 28.6, 29.2)" opacity="1">
</g>
<g id="PathID_167" transform="matrix(0.134379, 0, 0, 0.134379, 31.55, 29.2)" opacity="1">
<path style="fill:#000000;fill-opacity:1" d="M-2.75 -26.15Q-2.75 -25 -3.55 -24.3Q-4.35 -23.6 -5.4 -23.6Q-7.55 -23.6 -10.3 -25.8Q-11.7 -25.3 -12.9 -23.55Q-14.95 -24.8 -14.95 -27.55Q-14.95 -31.55 -10.6 -31.55L-7.2 -31.55Q-4.7 -31.55 -4.5 -35.25L-2.8 -35.25Q-2.8 -33.05 -3.95 -31.55Q-5.1 -30.1 -7.3 -30.1L-10.8 -30.1Q-13.25 -30.1 -13.25 -27.7Q-13.25 -26.55 -12.7 -25.65Q-11.45 -27.1 -10.1 -27.3Q-9.2 -26.55 -7.55 -25.45L-7.6 -26.15Q-7.6 -27.15 -6.9 -27.85Q-6.25 -28.55 -5.25 -28.55Q-4.2 -28.55 -3.45 -27.8Q-2.75 -27.1 -2.75 -26.15M-4.1 -26.15Q-4.1 -26.6 -4.45 -26.95Q-4.8 -27.3 -5.25 -27.3Q-5.7 -27.3 -6 -26.95Q-6.35 -26.6 -6.35 -26.15Q-6.35 -25.7 -6 -25.35Q-5.7 -25.05 -5.25 -25.05Q-4.8 -25.05 -4.45 -25.35Q-4.1 -25.7 -4.1 -26.15" />
</g>
<g id="PathID_168" transform="matrix(0.134379, 0, 0, 0.134379, 31.55, 29.2)" opacity="1">
</g>
<g id="PathID_169" transform="matrix(0.134379, 0, 0, 0.134379, 31.55, 29.2)" opacity="1">
<path style="fill:#000000;fill-opacity:1" d="M19.7 -2.9Q19.7 -1.5 18.65 -0.55Q17.65 0.4 16.3 0.4Q14.9 0.4 13.9 -0.55Q12.95 -1.5 12.95 -2.9L12.95 -3.25Q9.75 -2 8.05 0L5.8 0L5.8 -14.05Q5.1 -13.7 4.25 -13.7Q2.85 -13.7 1.85 -14.7Q0.85 -15.7 0.85 -17.1Q0.85 -18.45 1.85 -19.45Q2.85 -20.5 4.25 -20.5Q5.6 -20.5 6.6 -19.5Q7.65 -18.5 7.65 -17.1L7.65 -2Q8.65 -3.1 11.25 -4.3Q14.15 -5.6 15.05 -6.35Q16.8 -7.7 16.8 -9.85L16.8 -20.05L18.65 -20.05L18.65 -9.6Q18.65 -7.15 17.5 -6.05Q19.7 -5.15 19.7 -2.9M6 -17.1Q6 -17.8 5.45 -18.3Q4.95 -18.85 4.25 -18.85Q3.5 -18.85 3 -18.3Q2.5 -17.8 2.5 -17.1Q2.5 -16.35 3 -15.85Q3.5 -15.35 4.25 -15.35Q4.95 -15.35 5.45 -15.85Q6 -16.35 6 -17.1M18.05 -2.95Q18.05 -3.7 17.5 -4.2Q17 -4.7 16.3 -4.7Q15.55 -4.7 15.05 -4.2Q14.55 -3.7 14.55 -2.95Q14.55 -2.25 15.05 -1.75Q15.55 -1.25 16.3 -1.25Q17 -1.25 17.5 -1.75Q18.05 -2.25 18.05 -2.95" />
</g>
<g id="PathID_170" transform="matrix(0.134379, 0, 0, 0.134379, 31.55, 29.2)" opacity="1">
</g>
<g id="PathID_171" transform="matrix(0.134379, 0, 0, 0.134379, 34.4, 29.2)" opacity="1">
<path style="fill:#000000;fill-opacity:1" d="M17.25 0L15.4 0L15.4 -13.75Q15.4 -16.2 13.55 -17.5Q11.75 -18.85 9.4 -18.85Q7.05 -18.85 5.3 -17.2Q3.55 -15.6 3.55 -13.25Q3.55 -12.1 3.95 -10.55L4.55 -7.95Q5.05 -10.9 6.15 -12.9Q7.65 -15.6 9.9 -15.6Q11.2 -15.6 12 -14.75Q12.85 -13.95 12.85 -12.6Q12.85 -11.3 11.95 -10.4Q11.1 -9.55 9.8 -9.55Q8.5 -9.55 7.45 -10.75Q6.75 -9.65 6 -7.65Q5.15 -5.2 5.15 -3.3L5.15 0L3.3 0L3.3 -4.7Q3.3 -6.2 2.5 -8.9Q1.7 -11.6 1.7 -13.05Q1.7 -16.4 3.95 -18.45Q6.2 -20.5 9.55 -20.5Q12.65 -20.5 14.95 -18.8Q17.25 -17.15 17.25 -13.9L17.25 0M11.4 -12.55Q11.4 -13.2 10.9 -13.65Q10.45 -14.15 9.8 -14.15Q9.15 -14.15 8.7 -13.65Q8.25 -13.2 8.25 -12.55Q8.25 -11.9 8.7 -11.45Q9.15 -11 9.8 -11Q10.45 -11 10.9 -11.45Q11.4 -11.9 11.4 -12.55" />
</g>
<g id="PathID_172" transform="matrix(0.134379, 0, 0, 0.134379, 34.4, 29.2)" opacity="1">
</g>
<g id="PathID_173" transform="matrix(0.134379, 0, 0, 0.134379, 37.1, 29.2)" opacity="1">
<path style="fill:#000000;fill-opacity:1" d="M14.3 -2.95Q14.3 -1.55 13.3 -0.55Q12.3 0.4 10.9 0.4Q9.5 0.4 8.5 -0.55Q7.55 -1.55 7.55 -2.95Q7.55 -4.35 8.5 -5.35Q9.5 -6.35 10.9 -6.35Q11.75 -6.35 12.45 -5.95L12.45 -14.25Q12.45 -18.85 7.4 -18.85Q3.3 -18.85 2.35 -15.15L0.5 -15.15Q1.6 -20.5 7.5 -20.5Q10.4 -20.5 12.35 -18.95Q14.3 -17.4 14.3 -14.6L14.3 -2.95M12.65 -2.95Q12.65 -3.65 12.1 -4.15Q11.6 -4.7 10.9 -4.7Q10.2 -4.7 9.7 -4.15Q9.2 -3.65 9.2 -2.95Q9.2 -2.25 9.7 -1.75Q10.2 -1.25 10.9 -1.25Q11.6 -1.25 12.1 -1.75Q12.65 -2.25 12.65 -2.95" />
</g>
<g id="PathID_174" transform="matrix(0.134379, 0, 0, 0.134379, 37.1, 29.2)" opacity="1">
</g>
<g id="PathID_175" transform="matrix(0.134379, 0, 0, 0.134379, 39.4, 29.2)" opacity="1">
<path style="fill:#000000;fill-opacity:1" d="M13.3 0L11.45 0L11.45 -15.3Q11.45 -16.85 10.25 -17.85Q9.1 -18.85 7.1 -18.85Q5.35 -18.85 4.25 -17.6Q3.2 -16.4 3.1 -15.05L1.2 -15.05Q1.25 -17.2 2.9 -18.85Q4.55 -20.5 7.2 -20.5Q10.15 -20.5 11.7 -19.05Q13.3 -17.6 13.3 -15.25L13.3 0" />
</g>
<g id="PathID_176" transform="matrix(0.134379, 0, 0, 0.134379, 39.4, 29.2)" opacity="1">
</g>
<g id="PathID_177" transform="matrix(0.134379, 0, 0, 0.134379, 41.55, 29.2)" opacity="1">
<path style="fill:#000000;fill-opacity:1" d="M17.6 0L15.6 0Q11.6 -3.05 8.1 -4.05Q8.3 -3.55 8.3 -3.1Q8.3 -1.6 7.2 -0.6Q6.15 0.4 4.65 0.4Q3.2 0.4 2.15 -0.6Q1.15 -1.6 1.15 -3.1Q1.15 -4.6 2.15 -5.65Q3.2 -6.7 4.7 -6.7Q5.25 -6.7 5.8 -6.5L5.8 -14.05Q5.1 -13.7 4.25 -13.7Q2.85 -13.7 1.85 -14.7Q0.85 -15.7 0.85 -17.1Q0.85 -18.45 1.85 -19.45Q2.85 -20.5 4.25 -20.5Q5.6 -20.5 6.6 -19.5Q7.65 -18.5 7.65 -17.1L7.65 -6.05Q12.65 -4.25 15.75 -1.9L15.75 -20.05L17.6 -20.05L17.6 0M6.6 -3.15Q6.6 -3.9 6 -4.45Q5.45 -5.05 4.7 -5.05Q3.9 -5.05 3.35 -4.45Q2.8 -3.9 2.8 -3.15Q2.8 -2.4 3.35 -1.85Q3.9 -1.3 4.7 -1.3Q5.45 -1.3 6 -1.85Q6.6 -2.4 6.6 -3.15M6 -17.1Q6 -17.8 5.45 -18.3Q4.95 -18.85 4.25 -18.85Q3.5 -18.85 3 -18.3Q2.5 -17.8 2.5 -17.1Q2.5 -16.35 3 -15.85Q3.5 -15.35 4.25 -15.35Q4.95 -15.35 5.45 -15.85Q6 -16.35 6 -17.1" />
</g>
<g id="PathID_178" transform="matrix(0.134379, 0, 0, 0.134379, 41.55, 29.2)" opacity="1">
</g>
<g id="PathID_179" transform="matrix(0.134379, 0, 0, 0.134379, 44.3, 29.2)" opacity="1">
<path style="fill:#000000;fill-opacity:1" d="M16.65 0L14.8 0L14.8 -8.75Q14.8 -10.55 12.9 -11.6Q11.3 -12.5 9.2 -12.5Q7.15 -12.5 5.7 -11.35Q4.3 -10.25 4.3 -8.55L4.25 -5.95Q5 -6.35 5.95 -6.35Q7.4 -6.35 8.35 -5.35Q9.35 -4.35 9.35 -2.95Q9.35 -1.55 8.35 -0.55Q7.4 0.4 5.95 0.4Q4.35 0.4 3.4 -0.6Q2.45 -1.6 2.45 -3L2.45 -8.55Q2.45 -11.1 4.5 -12.75Q6.35 -14.3 9.05 -14.3Q12.6 -14.3 14.8 -12.25L14.8 -14.75Q14.8 -16.6 12.85 -17.8Q11.15 -18.85 9.1 -18.85Q6.95 -18.85 5.2 -17.9Q3.3 -16.9 2.85 -15.15L1.05 -15.15Q1.4 -17.5 3.8 -19.05Q6.05 -20.5 9 -20.5Q11.95 -20.5 14.1 -19.1Q16.65 -17.45 16.65 -14.65L16.65 0M7.65 -2.9Q7.65 -3.6 7.1 -4.1Q6.6 -4.65 5.9 -4.65Q5.2 -4.65 4.7 -4.1Q4.25 -3.6 4.25 -2.9Q4.25 -2.2 4.7 -1.7Q5.2 -1.25 5.9 -1.25Q6.6 -1.25 7.1 -1.7Q7.65 -2.2 7.65 -2.9" />
</g>
<g id="PathID_180" transform="matrix(0.134379, 0, 0, 0.134379, 44.3, 29.2)" opacity="1">
</g>
<g id="PathID_181" transform="matrix(0.134379, 0, 0, 0.134379, 46.9, 29.2)" opacity="1">
<path style="fill:#000000;fill-opacity:1" d="M2.55 -31.7Q2.45 -28.2 0.2 -25.95Q-2.05 -23.75 -5.5 -23.75Q-8.5 -23.75 -10.25 -24.95Q-12.05 -26.2 -12.05 -28.2Q-12.05 -29.55 -11.05 -30.5Q-10.1 -31.5 -8.75 -31.5Q-7.45 -31.5 -6.45 -30.5Q-5.45 -29.55 -5.45 -28.25Q-5.45 -26.5 -7 -25.45Q-6.3 -25.35 -5.1 -25.35Q-2.6 -25.4 -0.95 -27.3Q0.45 -29.1 0.55 -31.7L2.55 -31.7M-7.1 -28.3Q-7.1 -29.05 -7.6 -29.55Q-8.1 -30.05 -8.75 -30.05Q-9.45 -30.05 -9.95 -29.55Q-10.45 -29.05 -10.45 -28.3Q-10.45 -27.55 -9.95 -27.1Q-9.45 -26.65 -8.75 -26.65Q-8.1 -26.65 -7.6 -27.1Q-7.1 -27.55 -7.1 -28.3" />
</g>
<g id="PathID_182" transform="matrix(0.134379, 0, 0, 0.134379, 46.9, 29.2)" opacity="1">
</g>
<g id="PathID_183" transform="matrix(0.134379, 0, 0, 0.134379, 46.9, 29.2)" opacity="1">
<path style="fill:#000000;fill-opacity:1" d="M19.05 -4.35Q19.05 0.4 12.45 0.4Q5.8 0.4 5.8 -4.35L5.8 -14.05Q5.1 -13.7 4.25 -13.7Q2.85 -13.7 1.85 -14.7Q0.85 -15.7 0.85 -17.1Q0.85 -18.45 1.85 -19.45Q2.85 -20.5 4.25 -20.5Q5.6 -20.5 6.6 -19.5Q7.65 -18.5 7.65 -17.1L7.65 -4.5Q7.65 -1.3 12.45 -1.3Q17.2 -1.3 17.2 -4.5L17.2 -20.05L19.05 -20.05L19.05 -4.35M6 -17.1Q6 -17.8 5.45 -18.3Q4.95 -18.85 4.25 -18.85Q3.5 -18.85 3 -18.3Q2.5 -17.8 2.5 -17.1Q2.5 -16.35 3 -15.85Q3.5 -15.35 4.25 -15.35Q4.95 -15.35 5.45 -15.85Q6 -16.35 6 -17.1" />
</g>
<g id="PathID_184" transform="matrix(0.134379, 0, 0, 0.134379, 46.9, 29.2)" opacity="1">
</g>
</svg>
