<?xml version="1.0" encoding="utf-8"?>
<svg version="1.1" id="Layer_1"
xmlns="http://www.w3.org/2000/svg"
xmlns:xlink="http://www.w3.org/1999/xlink"
width="50px" height="50px"
xml:space="preserve">
<g id="PathID_1" transform="matrix(0.485288, 0, 0, 0.484478, 25.2, 24.85)" opacity="1">
<path style="fill:#000000;fill-opacity:1" d="M36 -36.1Q51 -21.1 51 0Q51 21.1 36 36Q21.1 51 0 51Q-21.1 51 -36.1 36Q-51 21.1 -51 0Q-51 -21.1 -36.1 -36.1Q-21.1 -51 0 -51Q21.1 -51 36 -36.1" />
</g>
<g id="PathID_2" transform="matrix(0.485288, 0, 0, 0.484478, 25.2, 24.85)" opacity="1">
</g>
<g id="PathID_3" transform="matrix(0.10435, -0.292191, 0.304662, 0.100078, -5.1, 39.5)" opacity="1">
<path style="fill:#1AB187;fill-opacity:1" d="M144.4 46.55Q155.8 74.9 143.75 103Q131.55 131.1 103.2 142.5Q82.4 150.85 60.5 146.15Q74.7 146.8 88 141.45Q110.75 132.2 122.3 110.95Q134.1 89.7 129.85 66.1Q131.35 87.1 120.4 104.95Q109.2 123.4 89.05 131.55Q64.15 141.45 39.5 130.7Q16.95 121.05 6.85 99.8L4.95 95.25Q-3.85 73.8 3 51.9Q4.5 46.95 6.85 42.45Q14.15 27.45 28.3 17.55Q37.55 10.05 48.5 5.55Q77.05 -5.85 104.95 6.2Q133.25 18.2 144.4 46.55" />
</g>
<g id="PathID_4" transform="matrix(0.10435, -0.292191, 0.304662, 0.100078, -5.1, 39.5)" opacity="1">
</g>
<g id="PathID_5" transform="matrix(0.205934, 0.0332641, -0.0280378, 0.226528, 15.8, 24.75)" opacity="1">
<path style="fill:#000000;fill-opacity:1" d="M36 -36.1Q51 -21.1 51 0Q51 21.1 36 36Q21.1 51 0 51Q-21.1 51 -36.1 36Q-51 21.1 -51 0Q-51 -21.1 -36.1 -36.1Q-21.1 -51 0 -51Q21.1 -51 36 -36.1" />
</g>
<g id="PathID_6" transform="matrix(0.205934, 0.0332641, -0.0280378, 0.226528, 15.8, 24.75)" opacity="1">
</g>
<g id="PathID_7" transform="matrix(0.116549, -0.00535588, 0.00558449, 0.111778, 35.2, 25.1)" opacity="1">
<path style="fill:#000000;fill-opacity:1" d="M36 -36.1Q51 -21.1 51 0Q51 21.1 36 36Q21.1 51 0 51Q-21.1 51 -36.1 36Q-51 21.1 -51 0Q-51 -21.1 -36.1 -36.1Q-21.1 -51 0 -51Q21.1 -51 36 -36.1" />
</g>
<g id="PathID_8" transform="matrix(0.116549, -0.00535588, 0.00558449, 0.111778, 35.2, 25.1)" opacity="1">
</g>
<g id="PathID_9" transform="matrix(0.0384755, -0.0226546, 0.0147346, 0.0230177, 25.6, 40.6)" opacity="1">
<path style="fill:#000000;fill-opacity:1" d="M185.85 -9.55L185.85 9.6Q185.85 30.3 171.2 44.95Q156.55 59.6 135.85 59.6L-135.85 59.6Q-156.55 59.6 -171.2 44.95Q-185.85 30.3 -185.85 9.6L-185.85 -9.55Q-185.85 -30.25 -171.2 -44.9Q-156.55 -59.55 -135.85 -59.55L135.85 -59.55Q156.55 -59.55 171.2 -44.9Q185.85 -30.25 185.85 -9.55" />
</g>
<g id="PathID_10" transform="matrix(0.0384755, -0.0226546, 0.0147346, 0.0230177, 25.6, 40.6)" opacity="1">
</g>
<g id="PathID_11" transform="matrix(0.0350997, -0.0206711, 0.0101047, 0.0157819, 25.5, 40.6)" opacity="1">
<path style="fill:#A60000;fill-opacity:1" d="M185.85 -9.55L185.85 9.6Q185.85 30.3 171.2 44.95Q156.55 59.6 135.85 59.6L-135.85 59.6Q-156.55 59.6 -171.2 44.95Q-185.85 30.3 -185.85 9.6L-185.85 -9.55Q-185.85 -30.25 -171.2 -44.9Q-156.55 -59.55 -135.85 -59.55L135.85 -59.55Q156.55 -59.55 171.2 -44.9Q185.85 -30.25 185.85 -9.55" />
</g>
<g id="PathID_12" transform="matrix(0.0350997, -0.0206711, 0.0101047, 0.0157819, 25.5, 40.6)" opacity="1">
</g>
<g id="PathID_13" transform="matrix(0.0439102, 0.0100695, -0.00654922, 0.0262689, 25.6, 40.6)" opacity="1">
<path style="fill:#000000;fill-opacity:1" d="M185.85 -9.55L185.85 9.6Q185.85 30.3 171.2 44.95Q156.55 59.6 135.85 59.6L-135.85 59.6Q-156.55 59.6 -171.2 44.95Q-185.85 30.3 -185.85 9.6L-185.85 -9.55Q-185.85 -30.25 -171.2 -44.9Q-156.55 -59.55 -135.85 -59.55L135.85 -59.55Q156.55 -59.55 171.2 -44.9Q185.85 -30.25 185.85 -9.55" />
</g>
<g id="PathID_14" transform="matrix(0.0439102, 0.0100695, -0.00654922, 0.0262689, 25.6, 40.6)" opacity="1">
</g>
<g id="PathID_15" transform="matrix(0.0400598, 0.00918652, -0.00449067, 0.0180121, 25.5, 40.6)" opacity="1">
<path style="fill:#A60000;fill-opacity:1" d="M185.85 -9.55L185.85 9.6Q185.85 30.3 171.2 44.95Q156.55 59.6 135.85 59.6L-135.85 59.6Q-156.55 59.6 -171.2 44.95Q-185.85 30.3 -185.85 9.6L-185.85 -9.55Q-185.85 -30.25 -171.2 -44.9Q-156.55 -59.55 -135.85 -59.55L135.85 -59.55Q156.55 -59.55 171.2 -44.9Q185.85 -30.25 185.85 -9.55" />
</g>
<g id="PathID_16" transform="matrix(0.0400598, 0.00918652, -0.00449067, 0.0180121, 25.5, 40.6)" opacity="1">
</g>
<g id="PathID_17" transform="matrix(0.186781, 0.0301703, -0.0254301, 0.205459, 15.75, 25.1)" opacity="1">
<path style="fill:#FFFFFF;fill-opacity:1" d="M36 -36.1Q51 -21.1 51 0Q51 21.1 36 36Q21.1 51 0 51Q-21.1 51 -36.1 36Q-51 21.1 -51 0Q-51 -21.1 -36.1 -36.1Q-21.1 -51 0 -51Q21.1 -51 36 -36.1" />
</g>
<g id="PathID_18" transform="matrix(0.186781, 0.0301703, -0.0254301, 0.205459, 15.75, 25.1)" opacity="1">
</g>
<g id="PathID_19" transform="matrix(0.260102, 0, 0, 0.185171, 15.6, 25.5)" opacity="1">
<path style="fill:#000000;fill-opacity:1" d="M3.35 -41.75L7.95 -24.15Q9.4 -18.95 14 -13.65Q18.55 -8.45 23.65 -6.4L27.45 -4.95Q32.5 -2.8 32.5 0Q32.5 2.8 27.45 5L23.65 6.5Q18.55 8.45 14 13.75Q9.4 18.8 7.95 24.15L3.35 41.85Q1.9 47.05 0.05 47.05Q-1.85 47.05 -3.35 41.85L-8.05 24.15Q-9.4 18.95 -14 13.75Q-18.7 8.45 -23.7 6.5L-27.55 5Q-32.5 2.8 -32.5 0Q-32.5 -2.8 -27.55 -4.95L-23.7 -6.4Q-18.7 -8.45 -14 -13.65Q-9.4 -18.95 -8.05 -24.15L-3.35 -41.75Q-1.85 -47 0.05 -47Q1.9 -47 3.35 -41.75" />
</g>
<g id="PathID_20" transform="matrix(0.260102, 0, 0, 0.185171, 15.6, 25.5)" opacity="1">
</g>
<g id="PathID_21" transform="matrix(0.243937, 0, 0, 0.173663, 15.75, 25.4)" opacity="1">
<path style="fill:#FFD045;fill-opacity:1" d="M3.35 -41.75L7.95 -24.15Q9.4 -18.95 14 -13.65Q18.55 -8.45 23.65 -6.4L27.45 -4.95Q32.5 -2.8 32.5 0Q32.5 2.8 27.45 5L23.65 6.5Q18.55 8.45 14 13.75Q9.4 18.8 7.95 24.15L3.35 41.85Q1.9 47.05 0.05 47.05Q-1.85 47.05 -3.35 41.85L-8.05 24.15Q-9.4 18.95 -14 13.75Q-18.7 8.45 -23.7 6.5L-27.55 5Q-32.5 2.8 -32.5 0Q-32.5 -2.8 -27.55 -4.95L-23.7 -6.4Q-18.7 -8.45 -14 -13.65Q-9.4 -18.95 -8.05 -24.15L-3.35 -41.75Q-1.85 -47 0.05 -47Q1.9 -47 3.35 -41.75" />
</g>
<g id="PathID_22" transform="matrix(0.243937, 0, 0, 0.173663, 15.75, 25.4)" opacity="1">
</g>
<g id="PathID_23" transform="matrix(0.100261, -0.00460736, 0.00480402, 0.0961563, 35.2, 25.4)" opacity="1">
<path style="fill:#FFFFFF;fill-opacity:1" d="M36 -36.1Q51 -21.1 51 0Q51 21.1 36 36Q21.1 51 0 51Q-21.1 51 -36.1 36Q-51 21.1 -51 0Q-51 -21.1 -36.1 -36.1Q-21.1 -51 0 -51Q21.1 -51 36 -36.1" />
</g>
<g id="PathID_24" transform="matrix(0.100261, -0.00460736, 0.00480402, 0.0961563, 35.2, 25.4)" opacity="1">
</g>
<g id="PathID_25" transform="matrix(-0.0668824, -5.60769e-009, 0, 0.0641445, 40.15, 20.7)" opacity="1">
<path style="fill:#000000;fill-opacity:1" d="M82.15 71.5Q79.9 70.7 78.9 69.85Q78 70.45 77.15 70.7L76.2 73.75Q78.55 73.85 80.45 70.85Q80.45 72.75 79.45 74.2Q78.55 75.6 76.85 75.6L74.4 75.75Q73.85 76 73 75.75L72.15 75.45L72.75 75.75L76.75 77L78.3 76.2L81.15 74.6L82.6 71.6L82.15 71.5M2.65 68.85Q1.7 63.4 2.1 57.55L2.55 58.1Q2.7 58.55 2.8 58.4Q2.35 63.75 2.65 68.85M16.95 108Q15.65 106.6 14.55 104.95Q13.9 103.95 13.4 102.85Q11.4 100.65 10 97.9Q9.2 96.3 8.8 94.45Q10.8 98.8 13.4 102.85Q14.85 105.7 16.95 108M49.7 4.9Q51.25 3.5 53.05 2.6Q57.1 1.15 61.55 0Q55.35 1.85 49.7 4.9M78 89.65Q78.65 89.45 79.2 89.05Q80.5 89.15 81.6 88.5L83.05 87.05Q81.4 88.3 79.2 89.05Q78.05 89.75 76.65 89.6Q71.3 91.1 66.15 89.2Q61 87.2 56.95 82.35Q53.05 77.65 51.35 71.6Q49.7 65.25 50.35 59.1Q53.8 43.95 67.7 36.65Q74 33.35 81.15 32.5Q88.5 31.65 95.35 33.35Q105.1 36.4 112.35 43.65Q119.55 50.55 123.3 60.1Q127 69.7 126.7 80Q126.45 90.75 121.85 100.25Q116.25 111.4 106.65 119.15Q97.25 126.55 85.6 129.7Q73.85 132.9 62 131.15Q49.5 129.3 38.95 122.4Q28.45 116 21.05 105.95Q14 96.35 10.75 84.5Q7.4 72.85 7.95 60.55Q8.55 48.25 13 36.8L14.9 34.8Q9.75 47 9.1 60.45Q8.55 73.75 12.55 86.35Q16.7 99.1 25.05 108.85Q33.6 119.25 45.8 124.75Q61.55 131.9 78.75 129.1Q96.35 126.4 109.2 114.25Q120.4 103.7 123.55 87.95Q126.7 72.15 120.7 58Q114.55 45.4 103.2 39.4Q91.65 33.05 78 35.7Q70.95 37.5 66 41.1Q60.85 45 57.4 50.95Q52.05 59 53.95 68.15Q55.35 75 60.55 79.25Q55.95 73.9 55.95 65.9Q55.95 55.7 63.1 47.35Q71.6 38.85 83.45 38.4Q94.8 37.95 104.5 45.1Q118.95 56.3 120.4 74.3Q120.95 82.6 118.4 90.75Q115.8 99.1 110.35 106.1Q96.9 122.95 75.75 124.55Q66.15 125.15 56.25 122.15Q46.55 119.25 37.75 113.1Q28 105.85 22.05 95.55Q16.25 85.5 14.45 74.05Q12.7 62.55 15.15 50.95Q17.6 39.1 24.05 28.65Q31.2 19.15 36.6 14Q41.55 9.35 47.35 6.55Q42.85 9.15 38.75 12.75Q28.9 21.35 22.85 33.5Q16.9 45.55 15.9 58.75Q14.7 72.4 19.25 84.9Q26.45 103.05 42.05 113.8Q58.55 125 76.85 122.4Q89.75 120.7 99.8 113.25Q109.65 105.85 114.95 94.35Q119.55 82.2 117.15 69.7Q114.4 56.15 104.5 48.7Q93.65 40.4 81.6 41.55Q68.6 42.65 62 54.4Q60.9 56.7 60.85 59.1Q59.4 61.95 59.4 64.9L59.4 66.45Q59.55 63 60.85 59.1Q65 49.8 74.3 46Q83.15 42.4 93.1 45.1Q102.65 48.7 108.55 58Q114.55 67.45 113.8 77.9Q112 96.65 98.8 108.4Q89.9 115.25 79.45 117.15Q69.4 118.95 59.2 116.25Q49.25 113.7 41.05 107.1Q32.45 100.35 27.45 90.75Q22.05 80 21.15 68.15Q20.45 56.7 24.15 45.55Q27.75 34.5 35.05 25.3Q42.5 16.05 52.8 9.9Q62.55 4.75 74 2.85Q85.05 1.15 96.2 2.85Q120.1 6.6 135.05 23.65Q138.85 28.65 142.35 34.25Q134.6 23.05 123.4 15.35Q112.35 7.75 99.6 4.75Q86.5 1.7 73.55 4.15Q60 6.6 48.1 14.6Q37.05 22.5 30.35 33.95Q23.85 45.25 22.6 57.85Q21.15 70.7 25.45 82.35Q30 94.75 40.05 103.7Q49.95 111.8 61.85 114.55Q74.4 117.25 86.15 113.1Q98.6 107.65 105.65 96.55Q113.1 84.9 111.55 72.05Q110.65 65.6 106.95 60Q103.5 54.5 98.25 51.25Q92.75 47.8 86.9 47.35Q80.45 46.8 74.55 49.8Q72.9 50.95 72 52.75Q71.55 52.95 71.15 53.25L69.9 55.2Q68 56.45 67.15 58.4L66.15 61.3L66.55 60.45Q67.5 58.55 69.9 55.2Q70.6 53.7 72 52.75Q77.3 48.4 84.5 49Q90.75 49.35 97.65 53.25Q104.4 58.4 107.2 66Q110.1 73.15 109.2 81.45Q107.95 90.05 103.05 96.9Q98.5 103.4 91.3 107.5Q84.3 111.55 76.2 112.4Q67.7 113.4 59.65 110.65Q47.55 106.95 39.2 97.65Q31.45 88.95 28.45 77Q25.45 65.25 27.75 53.4Q30.2 40.95 37.75 31.1Q49.95 16.05 67.6 10.65Q85.5 5.05 103.4 11.2Q120.1 17.5 131.85 30.1Q144 43.1 148.35 60.3Q151.75 78.2 148.15 94.75Q144.45 111.8 133.6 124.85Q130 128.85 125.45 132.7Q138.2 120.95 144.45 103.8Q150.95 85.9 148.35 67.25Q146.6 54.4 140 42.95Q133.7 31.8 123.85 23.75Q113.8 15.6 101.95 12Q89.65 8.2 76.85 9.9Q61.1 12.6 48.65 22.6Q35.9 32.8 30.9 47.35Q27.9 56.15 28.45 65.6Q28.9 74.75 32.6 83.15Q36.35 91.75 42.95 98.25Q49.7 104.95 58.55 108.4Q72.3 113.7 85.9 107.65Q99.35 101.7 104.5 88.5Q107.2 81.2 106.1 73.3Q104.95 65.15 99.95 59.1Q94.45 52.7 86.6 51.95Q83.15 51.75 80.35 53.45Q79.4 53.35 78.45 53.6L76.45 54.4Q78.2 53.3 80.35 53.45Q83.85 52.4 87.3 52.95Q92.1 53.85 95.35 56.85Q101.25 61.85 103.05 69.3Q104.95 76.2 103.05 83.45Q101.35 90.65 96.65 96.35Q91.75 102.35 85.05 104.8Q76.45 108.4 66.7 106.85Q57.1 105.25 49.25 98.9Q36.8 89.65 33.45 73.6Q30.35 58.55 36.6 43.95Q42.5 31.25 54.05 23.5Q65 16.35 78.75 14.9Q92.2 13.6 104.95 18.15Q118.25 23.05 127.55 33.35Q140.65 48.35 143.6 67.9Q146.9 87.35 139 104.8Q133.15 118.7 122 129Q111.25 139.05 97.35 144.3Q83.6 149.6 69 149.2Q53.8 148.9 40.5 142.45L32.8 137.6Q47.35 146.65 64.8 148Q81.6 149.35 97.65 143.45Q113.8 137.3 125.1 125.3Q137.2 112.55 141.3 95.55Q146.6 73.15 138.3 52.85Q129.9 32.1 110.35 21.6Q92.75 12.75 74.3 16.45Q55.4 20.2 43.5 35.7Q35.6 47.35 34.45 60.45Q33.35 74.05 40.05 86.15Q51.35 103.25 68.85 104.8Q75.55 105.25 82.15 102.7Q88.5 100.1 93.1 95.35Q97.8 90.5 99.6 84.15Q101.6 77.75 99.95 70.85Q99.25 65.15 94.65 61.85Q92.45 60.25 89.3 59.55Q95.8 63.15 97.65 69.7Q99.35 73.15 99.35 77.3Q99.35 81.45 97.65 84.9Q92.35 95.65 81.15 99.8Q69.85 104.25 59.65 98.9Q49.5 93.75 43.5 83.35Q37.75 73.15 37.75 61.55Q38.6 49.55 45.55 39.85Q51.95 30.65 62.55 25.3Q73 20.05 84.75 19.75Q97.05 19.6 107.95 25.2Q118.85 30.8 126.3 40.5Q133.3 49.7 136.4 61.45Q139.45 72.75 138.45 84.6Q137.3 96.8 132.15 107.25Q122.55 124.85 104.5 135.05Q86.3 145.3 66.55 143.65Q43.35 141.75 25.05 126.55Q6.85 111.4 0 88.5L0 85.5Q4.15 100.1 13.55 112.25Q22.85 124.15 35.6 131.7Q48.65 139.5 63.1 141.45Q78.3 143.65 93.1 138.85Q107.4 134.15 118.25 123.15Q128.9 112.55 133.7 98.5Q138.75 84.35 136.85 69.85Q134.85 54.4 125.3 41.55Q118.5 32.5 108.95 27.35Q99.6 22.3 89.3 21.5Q78.9 20.75 69.25 24.3Q59.2 27.9 51.7 35.7Q41.05 46.4 39.95 60.55Q38.75 75.2 48.1 87.35Q55.1 95.35 64.1 97.45Q73.3 99.8 82.7 95.55Q86.5 93.75 89.65 90.05Q92.65 86.6 93.9 82.35Q95.35 77.9 94.35 74.05Q93.75 71.85 92.65 70.15L93.1 72.05Q94.8 81.6 87.75 89.05Q80.7 96.35 71.15 95.55Q60.1 94.65 52.25 86.05Q44.35 77.75 43.5 66.15Q43.5 53.95 50.5 43.55Q57.65 33.05 68.85 28.65Q85.15 22.6 102.5 30.1Q110.65 33.5 117.15 39.4Q123.65 45.55 127.55 53.25Q134.4 68.45 132.7 84.6Q131 101.25 120.7 114.25Q105.4 133.25 81.7 137.05Q66.75 139.5 52.8 134.15Q45.05 132.65 37.75 128.3Q34.35 126.15 31.6 123.2Q41 130.35 52.8 134.15Q68.25 138.6 84.05 135.15Q99.6 131.9 112.7 121.25Q124.85 109.85 129.45 94.2Q134.15 78.45 129.9 62.7Q125.55 48.55 114.4 38.95Q103.05 29.2 88.5 27.5Q80.7 27.1 73 29.9Q65.55 32.8 59.55 38.05Q53.4 43.55 50.1 50.55Q46.55 58.1 46.9 66.15Q47.35 72.3 50.7 77.9Q53.7 83.45 58.65 87.05Q63.8 90.75 69.4 91.2Q73.25 91.55 76.65 89.6Q77.4 89.85 78 89.65" />
</g>
<g id="PathID_26" transform="matrix(-0.0668824, -5.60769e-009, 0, 0.0641445, 40.15, 20.7)" opacity="1">
</g>
</svg>
